<svg width="140" height="192" fill="none" xmlns="http://www.w3.org/2000/svg"><path d="M109.68 0h-.76A6.956 6.956 0 00106 3.147a30.524 30.524 0 00-2.58 6.75 3.214 3.214 0 01-1.022 1.827c-.535.48-1.217.77-1.938.825a14.76 14.76 0 00-6.105 2.543A14.574 14.574 0 0090 20.032a53.806 53.806 0 00-3.7 7.917c-2.84 7.284-5.02 14.806-7.7 22.15-1.26 3.344-1.32 3.344-5.12 3.344-4.54 0-4.22-.692-4.28 4.256 0 1.564.48 2.355 2.16 2.276.52 0 1.3-.257 1.5.416.2.673-.48.97-.88 1.366a18.049 18.049 0 01-8.66 4.83c-3.8 1.009-7.68 1.8-11.38 3.028-9.5 3.147-18.28 7.541-25.12 14.984a55.319 55.319 0 00-9.48 15.518C10 117.219 6.44 135.231 3.68 153.422c-1.3 8.531-2.22 17.102-2.92 25.732C.4 183.39 0 187.685 0 192h66.66a4.279 4.279 0 00-.46-2.534 9.902 9.902 0 00-3.025-4.032 10.039 10.039 0 00-4.635-2.044c-1.4-.317-1.56-.733-.7-1.821a20.417 20.417 0 003.18-6.136c3.26-9.521 4.52-19.458 6.1-29.295A58.95 58.95 0 0174 124.701a42.9 42.9 0 0111.18-12.609c1.66-1.247 1.72-1.247 2 .871.2 1.406.24 2.851.34 4.276.6 9.351.48 18.734-.36 28.067a120.823 120.823 0 00-.3 21.774A147.413 147.413 0 0091.4 192H118a10.665 10.665 0 00-2.858-5.7 10.85 10.85 0 00-5.622-3.088 18.173 18.173 0 00-7.52.395c-1.2.278-1.7 0-1.8-1.286a110.422 110.422 0 012-31.314 348.463 348.463 0 006.12-35.985 34.886 34.886 0 014.56-13.856c2.38-4.196 4.46-8.55 6.8-12.767a11.505 11.505 0 00.84-10.273c-.54-1.405-1.06-2.83-1.72-4.176-2-3.86-4-7.68-5.84-11.58-.98-1.98-.76-2.217 1.42-2.276 3.26 0 3.26 0 3.32-3.246V55.54c0-1.365-.52-2.117-2-1.979h-3.04c-1.38 0-1.78-.574-1.44-1.98a12.342 12.342 0 013.822-5.883 12.54 12.54 0 016.438-2.885 44.446 44.446 0 0113.24.851 2.017 2.017 0 001.512-.126c.468-.237.823-.647.988-1.14.8-1.98 1.68-3.96 2.58-5.939a1.96 1.96 0 00-.2-2.256c-6.4-8.037-13.34-15.538-22.8-20.348a2.973 2.973 0 01-1.165-.887 2.939 2.939 0 01-.595-1.33 38.464 38.464 0 00-2.54-8.234A6.944 6.944 0 00109.68 0z" fill="#000"/></svg>