<svg width="32" height="33" fill="none" xmlns="http://www.w3.org/2000/svg"><ellipse cx="21.204" cy="11.33" rx="1.087" ry="1.085" fill="#fff"/><ellipse cx="10.331" cy="11.33" rx="1.087" ry="1.085" fill="#fff"/><ellipse cx="10.331" cy="24.351" rx="1.087" ry="1.085" fill="#fff"/><ellipse cx="15.768" cy="26.521" rx="1.087" ry="1.085" fill="#fff"/><ellipse cx="7.069" cy="17.775" rx="1.087" ry="1.085" fill="#fff"/><ellipse cx="24.466" cy="17.775" rx="1.087" ry="1.085" fill="#fff"/><ellipse cx="21.204" cy="24.351" rx="1.087" ry="1.085" fill="#fff"/><mask id="a" fill="#fff"><path fill-rule="evenodd" clip-rule="evenodd" d="M21.386 29.058a1.058 1.058 0 011.217.196l1.826 1.875a.682.682 0 00.976-.95l-1.356-1.394c-.426-.438-.362-1.15.097-1.552 2.642-2.314 4.318-5.764 4.318-9.619C28.464 10.648 22.988 5 16.232 5 9.477 5 4 10.648 4 17.614c0 3.815 1.642 7.234 4.236 9.547.453.403.513 1.11.09 1.544l-1.434 1.473a.682.682 0 10.977.951l1.88-1.93a1.058 1.058 0 011.226-.191 11.878 11.878 0 005.257 1.221c1.841 0 3.588-.42 5.154-1.17zm-5.154-.23c6.005 0 10.873-5.02 10.873-11.213S22.237 6.402 16.232 6.402c-6.005 0-10.873 5.02-10.873 11.212 0 6.193 4.868 11.213 10.873 11.213zm-.76-11.53V9.94a.781.781 0 011.563 0v8.183c0 .443-.36.803-.803.803a.76.76 0 01-.76-.76v-.868z"/></mask><path fill-rule="evenodd" clip-rule="evenodd" d="M21.386 29.058a1.058 1.058 0 011.217.196l1.826 1.875a.682.682 0 00.976-.95l-1.356-1.394c-.426-.438-.362-1.15.097-1.552 2.642-2.314 4.318-5.764 4.318-9.619C28.464 10.648 22.988 5 16.232 5 9.477 5 4 10.648 4 17.614c0 3.815 1.642 7.234 4.236 9.547.453.403.513 1.11.09 1.544l-1.434 1.473a.682.682 0 10.977.951l1.88-1.93a1.058 1.058 0 011.226-.191 11.878 11.878 0 005.257 1.221c1.841 0 3.588-.42 5.154-1.17zm-5.154-.23c6.005 0 10.873-5.02 10.873-11.213S22.237 6.402 16.232 6.402c-6.005 0-10.873 5.02-10.873 11.212 0 6.193 4.868 11.213 10.873 11.213zm-.76-11.53V9.94a.781.781 0 011.563 0v8.183c0 .443-.36.803-.803.803a.76.76 0 01-.76-.76v-.868z" fill="#fff"/><path d="M21.386 29.058l-1.73-3.606 1.73 3.606zm1.217.196l2.866-2.79-2.866 2.79zm1.826 1.875l2.865-2.79-2.865 2.79zm.976 0l2.866 2.79-2.866-2.79zm0-.95l2.866-2.792-2.866 2.791zm-1.356-1.394l-2.866 2.79 2.866-2.79zm.097-1.552l-2.635-3.009 2.635 3.01zm-15.91-.072l2.662-2.986-2.662 2.986zm.09 1.544l-2.866-2.79 2.866 2.79zm-1.434 1.473l2.866 2.79-2.866-2.79zm0 .951l2.866-2.79-2.866 2.79zm.977 0l-2.866-2.79 2.866 2.79zm1.88-1.93l-2.867-2.79 2.866 2.79zm1.226-.191l-1.765 3.59 1.765-3.59zm12.141 3.656a2.943 2.943 0 01-3.379-.62l5.732-5.58c-1.617-1.66-3.993-1.886-5.813-1.012l3.46 7.212zm-3.379-.62l1.826 1.876 5.731-5.582-1.825-1.874-5.732 5.58zm1.826 1.876a4.682 4.682 0 006.708 0l-5.731-5.582a3.318 3.318 0 014.754 0l-5.731 5.582zm6.708 0a4.682 4.682 0 000-6.533L22.54 32.97a3.318 3.318 0 010-4.63l5.731 5.58zm0-6.533l-1.357-1.393-5.731 5.582 1.357 1.393 5.731-5.582zm-1.357-1.393c1.343 1.38.944 3.305-.132 4.248l-5.271-6.018c-1.995 1.748-2.523 5.098-.328 7.352l5.731-5.582zm-.132 4.248c3.49-3.056 5.682-7.595 5.682-12.628h-8c0 2.677-1.16 5.04-2.953 6.61l5.27 6.018zm5.682-12.628C32.464 8.556 25.312 1 16.232 1v8c4.431 0 8.232 3.74 8.232 8.614h8zM16.232 1C7.152 1 0 8.556 0 17.614h8C8 12.74 11.8 9 16.232 9V1zM0 17.614c0 4.98 2.147 9.477 5.574 12.532l5.324-5.97C9.136 22.603 8 20.262 8 17.614H0zm5.574 12.532c-1.063-.948-1.447-2.862-.114-4.231l5.732 5.581c2.18-2.238 1.675-5.565-.294-7.32l-5.324 5.97zm-.114-4.231l-1.434 1.472 5.732 5.582 1.434-1.473-5.732-5.581zm-1.434 1.472a4.682 4.682 0 000 6.533l5.732-5.582a3.318 3.318 0 010 4.63l-5.732-5.58zm0 6.533a4.682 4.682 0 006.708 0l-5.731-5.582a3.318 3.318 0 014.755 0L4.026 33.92zm6.708 0l1.88-1.93-5.732-5.582-1.88 1.93 5.732 5.582zm1.88-1.93a2.943 2.943 0 01-3.404.607l3.53-7.179c-1.827-.898-4.228-.683-5.857.99l5.73 5.582zm-3.404.607a15.878 15.878 0 007.022 1.632v-8a7.878 7.878 0 01-3.493-.811l-3.53 7.18zm7.022 1.632c2.456 0 4.792-.56 6.884-1.565l-3.46-7.212a7.88 7.88 0 01-3.424.777v8zm0-1.402c8.33 0 14.873-6.928 14.873-15.212h-8c0 4.1-3.192 7.212-6.873 7.212v8zm14.873-15.212c0-8.285-6.544-15.213-14.873-15.213v8c3.68 0 6.873 3.112 6.873 7.213h8zM16.232 2.402C7.902 2.402 1.36 9.33 1.36 17.614h8c0-4.1 3.192-7.212 6.873-7.212v-8zM1.36 17.614c0 8.285 6.544 15.213 14.873 15.213v-8c-3.68 0-6.873-3.112-6.873-7.213h-8zm18.114-.316V13.5h-8v3.798h8zm0-3.798V9.94h-8v3.56h8zm0-3.56a3.219 3.219 0 01-3.22 3.22v-8a4.781 4.781 0 00-4.78 4.78h8zm-3.22 3.22a3.219 3.219 0 01-3.218-3.22h8a4.78 4.78 0 00-4.781-4.78v8zm-3.218-3.22v3.56h8V9.94h-8zm0 3.56v3.798h8V13.5h-8zm0 3.798v.543h8v-.543h-8zm0 .543v.282h8v-.282h-8zm0 .282a3.197 3.197 0 013.197-3.197v8a4.803 4.803 0 004.803-4.803h-8zm3.197-3.197a3.24 3.24 0 013.24 3.24h-8a4.76 4.76 0 004.76 4.76v-8zm3.24 3.24v-.325h-8v.325h8zm0-.325v-.543h-8v.543h8z" fill="#fff" mask="url(#a)"/><path fill="#fff" d="M15 6V2h1.5v4z"/><rect x="8" y="2" width="15.5" height="1.5" rx=".75" fill="#fff"/></svg>